PathFileType	4	(X/Y/Z)	./resultDataOpenSim/trcMotMarkerGrf/sub06/qtm-13-08.trc
DataRate	CameraRate	NumFrames	NumMarkers	Units	OrigDataRate	OrigDataStartFrame	OrigNumFrames
250.000000	250.000000	6	24	m	250.000000	262	523
Frame#	Time	L.Toe.Tip			R.Toe.Tip			L.Ankle.Lat			R.Ankle.Lat			L.Ankle.Med			R.Ankle.Med			L.Heel			R.Heel			L.Knee.Lat			R.Knee.Lat			L.Knee.Med			R.Knee.Med			L.Thigh.Upper			R.Thigh.Upper			L.ASIS			R.ASIS			V.Sacral			L.Acromium			R.Acromium			C7			L.Elbow			R.Elbow			L.Wrist.Lat			R.Wrist.Lat
		X1	Y1	Z1	X2	Y2	Z2	X3	Y3	Z3	X4	Y4	Z4	X5	Y5	Z5	X6	Y6	Z6	X7	Y7	Z7	X8	Y8	Z8	X9	Y9	Z9	X10	Y10	Z10	X11	Y11	Z11	X12	Y12	Z12	X13	Y13	Z13	X14	Y14	Z14	X15	Y15	Z15	X16	Y16	Z16	X17	Y17	Z17	X18	Y18	Z18	X19	Y19	Z19	X20	Y20	Z20	X21	Y21	Z21	X22	Y22	Z22	X23	Y23	Z23	X24	Y24	Z24

262	1.044	0.11610592	-0.015901937	-0.02765004	0.63326839	0.0969889	0.15438037	0.0008123615	0.042626609	-0.05700339	0.49645449	0.098440449	0.17172713	0.0045711798	0.059710807	0.029050916	0.51517751	0.12320751	0.084698696	-0.074892968	0.030150194	-0.011374939	0.44931938	0.065091921	0.11064911	0.11894168	0.39422248	-0.078030909	0.47392115	0.49305075	0.16995546	0.10573927	0.39953429	0.043366962	0.45144635	0.46753971	0.04938895	0.20497936	0.77019897	-0.148664	0.24281577	0.78579666	0.20098457	0.29030997	0.81398891	-0.11368104	0.31077515	0.83616357	0.13161782	0.12660291	0.90032739	0.029387814	0.28184775	1.313102	-0.15702181	0.25382941	1.2896267	0.20182252	0.19472035	1.3391355	0.015435666	0.28084353	0.99250836	-0.25637608	0.088410613	1.0220995	0.2449954	0.52824933	0.93802719	-0.21911257	0.12066617	0.79175354	0.3054898
263	1.048	0.1161464	-0.015925321	-0.027715537	0.65124684	0.098396492	0.15286975	0.0015001433	0.043316307	-0.057221342	0.51442964	0.097016063	0.17085426	0.0052785958	0.060443257	0.028712259	0.53228725	0.12247605	0.083828969	-0.074353047	0.031538207	-0.011829288	0.46797973	0.06300886	0.10965701	0.12211863	0.39422624	-0.078153118	0.48047832	0.49085856	0.16955973	0.10935061	0.39945954	0.04326186	0.45802976	0.46469246	0.0490024	0.21021419	0.76932774	-0.1482566	0.25051436	0.78424913	0.20115741	0.29608925	0.8129291	-0.11381523	0.3184803	0.83464137	0.13164244	0.13304548	0.89915839	0.030720162	0.28824663	1.3120951	-0.1568224	0.26041657	1.2886764	0.20207908	0.2011767	1.3382203	0.015813516	0.28977524	0.9913272	-0.25641914	0.094459868	1.0217637	0.24515505	0.53786153	0.94143035	-0.2178434	0.12458056	0.79139617	0.3061938
264	1.052	0.11618908	-0.015948433	-0.027776649	0.66866836	0.099949179	0.15145663	0.0022955121	0.043989401	-0.057585438	0.53189802	0.095863982	0.16993707	0.0059747421	0.061173737	0.028366791	0.54894796	0.12198323	0.082939335	-0.073828637	0.032980243	-0.01233443	0.48631808	0.061178409	0.10844574	0.12551803	0.39416663	-0.078275237	0.48695982	0.48850268	0.16917979	0.11315108	0.39934484	0.043180053	0.46452887	0.46172292	0.048602133	0.21548155	0.76843441	-0.14783556	0.25827808	0.78263972	0.20134024	0.30189408	0.81186389	-0.11392672	0.32643692	0.83301396	0.13160011	0.13946318	0.89797011	0.032121218	0.29464831	1.3110553	-0.15661129	0.26698791	1.287697	0.20233138	0.20773682	1.3372298	0.016037792	0.29868809	0.9901426	-0.25634944	0.1005795	1.0213683	0.24532393	0.54735977	0.94472228	-0.2165945	0.12865638	0.79098852	0.30692724
265	1.056	0.11623391	-0.015970891	-0.027830656	0.68549849	0.10165144	0.15016061	0.0031482981	0.044672974	-0.058025789	0.54877161	0.09495297	0.16894593	0.0066988628	0.061914731	0.028030398	0.56512497	0.1217258	0.082010296	-0.073293648	0.034463887	-0.01282063	0.50425235	0.059602475	0.10697763	0.12913804	0.39404019	-0.078394383	0.49339259	0.48601259	0.16881584	0.11710529	0.39916657	0.04314334	0.47095045	0.45866456	0.04815355	0.22079537	0.76752094	-0.14740967	0.26616618	0.78100365	0.20158151	0.3077258	0.81079803	-0.11401735	0.33468587	0.83127258	0.13147725	0.14592721	0.89676413	0.033556084	0.30105092	1.3099876	-0.15638743	0.27356205	1.2866897	0.20258631	0.21442615	1.3361633	0.016086187	0.30756098	0.98895424	-0.25623118	0.10675606	1.0209166	0.24550343	0.55674705	0.94790063	-0.21537007	0.1329095	0.79052598	0.30768859
266	1.06	0.11628269	-0.015991496	-0.027875647	0.70170964	0.10349701	0.14898659	0.0039704186	0.045417265	-0.058444813	0.56498636	0.094219012	0.16783897	0.0074780489	0.06267928	0.027718679	0.58079165	0.1216912	0.081032891	-0.072724785	0.035991456	-0.013253405	0.52166077	0.058273842	0.10527157	0.13297324	0.39384578	-0.078499046	0.49980442	0.48341594	0.16846711	0.12116806	0.39889929	0.043170493	0.4773235	0.45554539	0.047623247	0.22616194	0.76659593	-0.14697478	0.27416232	0.77933675	0.20188944	0.31359374	0.80973539	-0.11408637	0.3432498	0.82943139	0.13127128	0.15244493	0.89554708	0.03500297	0.30744902	1.308895	-0.15614855	0.28015042	1.285658	0.2028501	0.22116221	1.335041	0.016072502	0.31637712	0.98776264	-0.25610248	0.11297607	1.0204021	0.24569958	0.56602398	0.95096444	-0.21417016	0.13733463	0.79002297	0.30848027
267	1.064	0.1163376	-0.016009779	-0.027912735	0.71725077	0.10547765	0.14793557	0.0047294876	0.046251238	-0.058789836	0.58050565	0.093589673	0.16660844	0.0083193963	0.063468795	0.027435101	0.59592996	0.12184215	0.080045413	-0.072108919	0.037567025	-0.01363223	0.53839707	0.057144625	0.10344514	0.13701662	0.39358783	-0.078573931	0.50621645	0.48073805	0.1681259	0.12535891	0.39853888	0.043242513	0.48369738	0.45239923	0.047004493	0.23158386	0.76566995	-0.14652034	0.28219379	0.77761395	0.2022378	0.31951274	0.80868077	-0.11413024	0.35207186	0.82756411	0.13101194	0.15900794	0.89432846	0.036424955	0.31384296	1.3077806	-0.15589201	0.28674204	1.2846033	0.20312237	0.22782147	1.3338936	0.016162169	0.32512776	0.98657077	-0.25595363	0.11923427	1.0198178	0.24591354	0.57519052	0.95391157	-0.21298622	0.1418589	0.78949319	0.30930147
